<?xml version="1.0" standalone="no"?>
<!DOCTYPE svg PUBLIC "-//W3C//DTD SVG 20010904//EN"
 "http://www.w3.org/TR/2001/REC-SVG-20010904/DTD/svg10.dtd">
<svg version="1.0" xmlns="http://www.w3.org/2000/svg"
 width="317.000000pt" height="317.000000pt" viewBox="0 0 317.000000 317.000000"
 preserveAspectRatio="xMidYMid meet">
<metadata>
Created by potrace 1.11, written by Peter Selinger 2001-2013
</metadata>
<g transform="translate(0.000000,317.000000) scale(0.100000,-0.100000)"
fill="#000000" stroke="none">
<path d="M1587 3164 c-1 -1 -42 -4 -92 -7 -104 -7 -257 -44 -347 -83 -188 -83
-385 -257 -495 -440 -29 -47 -93 -184 -97 -208 -2 -6 -8 -29 -14 -51 -30 -109
-35 -192 -37 -700 -2 -286 -3 -523 -4 -527 0 -5 -48 -7 -106 -5 l-105 2 0
-287 c0 -223 3 -288 13 -289 6 -1 55 -2 107 -3 l95 -1 0 -282 0 -283 307 0
308 0 0 283 0 284 323 1 c177 0 334 1 350 1 l27 1 0 285 0 285 -47 1 c-27 0
-184 0 -351 1 l-302 0 1 512 c1 552 1 560 56 674 35 72 151 191 215 220 170
78 357 49 499 -79 66 -59 136 -191 153 -289 3 -14 5 -97 5 -185 l1 -160 303 1
c166 1 305 2 309 3 7 1 3 370 -5 397 -3 11 -8 35 -11 54 -48 308 -294 623
-600 770 -74 35 -154 63 -217 75 -67 14 -236 34 -242 29z"/>
<path d="M2088 1142 l-38 -3 0 -570 0 -569 307 2 308 3 1 568 0 567 -25 1
c-134 2 -524 3 -553 1z"/>
</g>
</svg>
