<?xml version="1.0" standalone="no"?>
<!DOCTYPE svg PUBLIC "-//W3C//DTD SVG 20010904//EN"
 "http://www.w3.org/TR/2001/REC-SVG-20010904/DTD/svg10.dtd">
<svg version="1.0" xmlns="http://www.w3.org/2000/svg"
 width="300.000000pt" height="300.000000pt" viewBox="0 0 300.000000 300.000000"
 preserveAspectRatio="xMidYMid meet">
<metadata>
Created by potrace 1.11, written by Peter Selinger 2001-2013
</metadata>
<g transform="translate(0.000000,300.000000) scale(0.100000,-0.100000)"
fill="#000000" stroke="none">
<path d="M1155 2939 c-55 -33 -107 -62 -115 -66 -8 -4 -43 -24 -78 -45 -34
-21 -64 -38 -67 -38 -3 0 -29 -16 -59 -35 -30 -19 -57 -35 -60 -35 -3 0 -33
-17 -68 -37 -35 -21 -79 -47 -99 -58 -20 -11 -95 -54 -167 -95 l-132 -75 0
-820 0 -820 106 -60 c129 -73 126 -71 449 -258 143 -82 285 -163 315 -180 30
-16 67 -38 82 -49 14 -10 29 -18 32 -18 4 0 23 -11 44 -23 20 -13 57 -35 82
-49 48 -27 76 -43 180 -103 136 -79 128 -77 185 -46 48 26 498 285 768 441
l127 74 -2 820 -3 821 -90 53 c-49 29 -99 57 -110 62 -11 6 -42 24 -70 40 -27
16 -59 34 -70 40 -11 6 -36 20 -55 31 -51 31 -277 162 -330 191 -43 24 -77 44
-152 87 -18 10 -73 42 -123 71 -49 29 -115 66 -145 83 -30 16 -67 38 -82 49
-14 10 -28 18 -31 18 -3 0 -40 20 -81 45 -42 25 -78 45 -79 44 -1 0 -47 -27
-102 -60z"/>
</g>
</svg>
