<?xml version="1.0" standalone="no"?>
<!DOCTYPE svg PUBLIC "-//W3C//DTD SVG 20010904//EN"
 "http://www.w3.org/TR/2001/REC-SVG-20010904/DTD/svg10.dtd">
<svg version="1.0" xmlns="http://www.w3.org/2000/svg"
 width="292.000000pt" height="292.000000pt" viewBox="0 0 292.000000 292.000000"
 preserveAspectRatio="xMidYMid meet">
<metadata>
Created by potrace 1.11, written by Peter Selinger 2001-2013
</metadata>
<g transform="translate(0.000000,292.000000) scale(0.100000,-0.100000)"
fill="#000000" stroke="none">
<path d="M1277 2820 c-188 -32 -363 -125 -508 -269 -88 -89 -147 -172 -199
-285 -86 -184 -90 -227 -90 -1148 l0 -767 78 -55 c93 -67 288 -165 396 -200
43 -14 80 -26 82 -26 2 0 4 94 4 210 l0 210 315 0 315 0 0 265 0 265 -316 0
-315 0 3 468 3 467 26 67 c45 116 133 213 236 261 40 18 66 22 153 22 96 0
110 -3 165 -29 107 -53 199 -167 231 -290 9 -32 14 -106 14 -203 l0 -153 280
0 280 0 0 174 c0 116 -5 201 -16 257 -70 371 -399 691 -778 758 -68 13 -288
13 -359 1z"/>
<path d="M1870 545 c0 -264 4 -475 9 -475 5 0 43 11 85 25 110 36 269 114 374
185 l92 61 0 340 0 339 -280 0 -280 0 0 -475z"/>
</g>
</svg>
