<?xml version="1.0" standalone="no"?>
<!DOCTYPE svg PUBLIC "-//W3C//DTD SVG 20010904//EN"
 "http://www.w3.org/TR/2001/REC-SVG-20010904/DTD/svg10.dtd">
<svg version="1.0" xmlns="http://www.w3.org/2000/svg"
 width="300.000000pt" height="300.000000pt" viewBox="0 0 300.000000 300.000000"
 preserveAspectRatio="xMidYMid meet">
<metadata>
Created by potrace 1.11, written by Peter Selinger 2001-2013
</metadata>
<g transform="translate(0.000000,300.000000) scale(0.100000,-0.100000)"
fill="#000000" stroke="none">
<path d="M1105 2927 c-66 -38 -156 -91 -200 -117 -44 -26 -196 -113 -337 -195
l-258 -148 0 -808 0 -807 183 106 c100 58 201 116 224 129 l43 24 0 507 c0
279 0 526 0 549 l0 41 218 126 c119 69 225 131 236 139 17 12 18 31 18 266 0
139 -2 254 -3 255 -2 2 -58 -28 -124 -67z"/>
<path d="M1289 2993 c-1 -4 -2 -120 -3 -256 -1 -210 1 -250 14 -261 12 -10
557 -327 850 -495 25 -14 54 -31 64 -37 17 -11 18 -39 20 -560 l1 -549 170
-98 c94 -54 194 -112 223 -128 l52 -30 0 808 -1 808 -156 90 c-86 50 -177 102
-202 116 -25 14 -233 134 -461 266 -229 133 -438 253 -465 268 -28 15 -62 37
-77 47 -16 11 -29 16 -29 11z"/>
<path d="M1043 2312 c-111 -64 -199 -120 -197 -123 3 -6 67 -45 139 -84 11 -6
79 -46 150 -87 72 -42 235 -137 363 -211 l233 -135 172 101 c95 55 189 109
209 120 20 11 35 24 33 28 -3 4 -31 22 -63 40 -92 52 -103 58 -432 249 -173
100 -330 191 -348 201 -18 11 -38 19 -45 19 -7 0 -103 -53 -214 -118z"/>
<path d="M810 1626 l0 -514 178 -103 c450 -262 707 -409 712 -409 4 0 6 231 7
514 0 577 9 511 -76 558 -20 11 -72 41 -116 68 -44 26 -186 108 -315 183 -129
74 -266 154 -305 176 -38 23 -73 41 -77 41 -5 0 -8 -231 -8 -514z"/>
<path d="M1975 1754 c-110 -63 -203 -119 -208 -123 -7 -7 -8 -179 -7 -818 l0
-221 79 47 c43 25 138 80 210 121 l131 75 0 517 c0 285 -1 518 -3 518 -1 0
-92 -52 -202 -116z"/>
<path d="M735 1038 c-27 -17 -124 -73 -215 -125 -91 -52 -168 -98 -172 -102
-7 -6 171 -113 407 -246 22 -13 81 -47 130 -75 50 -29 164 -96 255 -148 91
-52 261 -151 378 -219 l213 -124 72 42 c40 23 88 51 107 61 68 39 436 252 530
306 52 31 119 69 147 84 29 16 55 33 57 37 3 4 -41 34 -97 66 -56 32 -155 90
-220 128 l-119 69 -186 -108 c-103 -59 -210 -121 -239 -136 l-52 -29 -323 187
c-178 103 -339 196 -358 207 -30 17 -141 81 -235 137 -30 17 -31 17 -80 -12z"/>
</g>
</svg>
