<?xml version="1.0" standalone="no"?>
<!DOCTYPE svg PUBLIC "-//W3C//DTD SVG 20010904//EN"
 "http://www.w3.org/TR/2001/REC-SVG-20010904/DTD/svg10.dtd">
<svg version="1.0" xmlns="http://www.w3.org/2000/svg"
 width="260.000000pt" height="260.000000pt" viewBox="0 0 260.000000 260.000000"
 preserveAspectRatio="xMidYMid meet">
<metadata>
Created by potrace 1.11, written by Peter Selinger 2001-2013
</metadata>
<g transform="translate(0.000000,260.000000) scale(0.100000,-0.100000)"
fill="#000000" stroke="none">
<path d="M1288 2595 c-2 -2 -32 -5 -68 -6 -36 -2 -69 -5 -75 -8 -5 -2 -23 -6
-40 -8 -40 -4 -135 -37 -198 -70 -200 -100 -360 -276 -436 -478 -51 -135 -57
-202 -56 -667 0 -270 -4 -419 -10 -421 -5 -1 -47 -2 -93 -1 l-82 2 0 -234 c0
-180 3 -234 13 -235 6 -1 48 -2 92 -3 l79 -1 1 -232 0 -233 252 0 253 0 2 233
3 232 277 0 c152 0 280 3 283 7 6 5 8 193 6 404 l-1 61 -282 -1 -283 0 -2 419
c-3 444 0 470 45 559 44 84 164 189 230 199 9 1 22 5 27 8 10 5 120 3 161 -4
88 -14 205 -115 253 -217 34 -73 32 -63 39 -240 l7 -155 240 -1 c132 0 245 1
251 3 12 4 11 293 0 343 -4 14 -8 39 -10 55 -7 49 -55 172 -92 235 -61 104
-120 172 -234 269 -52 45 -166 107 -246 135 -86 30 -108 35 -204 42 -41 3 -80
7 -87 9 -6 2 -13 2 -15 0z"/>
<path d="M1680 468 l0 -468 253 2 252 3 0 465 0 465 -252 1 -253 1 0 -469z"/>
</g>
</svg>
